PathFileType	4	(X/Y/Z)	C:/Users/Rosti/Documents/GitHub/TechForParalysis/Code/Model/04122019 - Marker Volunteer01/Rosti Data/New Session 103.trc	
DataRate	CameraRate	NumFrames	NumMarkers	Units	OrigDataRate	OrigDataStartFrame	OrigNumFrames	
100.00	100.00	18	14	mm	100.00	1	620	
Frame#	Time	C7			PX			T8			IJ			SC			AC			AI			TS			AA			GH			LE			ME			US			RS			
		X1	Y1	Z1	X2	Y2	Z2	X3	Y3	Z3	X4	Y4	Z4	X5	Y5	Z5	X6	Y6	Z6	X7	Y7	Z7	X8	Y8	Z8	X9	Y9	Z9	X10	Y10	Z10	X11	Y11	Z11	X12	Y12	Z12	X13	Y13	Z13	X14	Y14	Z14	

1	0.000	706.06488	15.94323	1533.01794	468.51376	-19.52652	1294.58350	769.88855	10.58909	1317.33484	539.70264	-14.28845	1435.79712	543.82300	10.93205	1443.12903	606.78308	160.75745	1472.11548	738.58209	96.77483	1451.81165	769.22931	93.12792	1333.37744	674.43390	211.02649	1425.42871	634.01294	222.31096	1438.43958	554.20087	253.33063	1148.56836	518.35760	167.47092	1131.98474	429.50122	282.74661	896.59863	419.60999	349.92398	932.90381 
2	0.010	706.09991	15.94975	1532.97522	468.54688	-19.54126	1294.58569	769.92084	10.59876	1317.31067	539.74915	-14.29586	1435.80554	543.86237	10.87213	1443.11011	606.78821	160.76537	1472.08667	738.58167	96.79630	1451.77197	769.25525	93.16941	1333.34326	674.45343	211.04500	1425.40002	634.02155	222.31299	1438.41174	554.22205	253.28186	1148.54761	518.48499	167.54642	1131.93701	429.53485	282.72589	896.54523	419.72794	349.90396	932.84149 
3	0.020	706.13354	15.95296	1532.94116	468.56787	-19.55795	1294.59644	769.95471	10.60847	1317.29175	539.79156	-14.30575	1435.81458	543.89661	10.83377	1443.10352	606.80017	160.76009	1472.05518	738.58966	96.80400	1451.73938	769.27850	93.20042	1333.31738	674.46869	211.04964	1425.37585	634.03607	222.31407	1438.39050	554.22754	253.24046	1148.54163				429.59744	282.70969	896.49500	419.83450	349.88995	932.78320 
4	0.030	706.16541	15.95336	1532.91736	468.58008	-19.57812	1294.61438	769.99005	10.61819	1317.27820	539.82996	-14.31796	1435.82397	543.92822	10.80941	1443.10608	606.82001	160.74713	1472.02966	738.60596	96.79996	1451.71594	769.29852	93.22169	1333.30017	674.48151	211.04137	1425.35779	634.05542	222.31239	1438.37793	554.22260	253.21422	1148.55176	518.51331	167.61557	1131.92761	429.68048	282.69138	896.45013	419.93011	349.87936	932.73059 
5	0.040	706.19537	15.95188	1532.90576	468.58951	-19.60221	1294.63696	770.02679	10.62791	1317.26978	539.86444	-14.33209	1435.83362	543.95795	10.78826	1443.11450	606.84631	160.73228	1472.02209	738.62921	96.78979	1451.70422	769.31512	93.23449	1333.29138	674.49646	211.02353	1425.34912	634.07739	222.30380	1438.37646	554.21381	253.20712	1148.58301	518.43347	167.60532	1131.96289	429.77289	282.66928	896.41754	420.01678	349.86823	932.68652 
6	0.050	706.22333	15.94979	1532.90723	468.60284	-19.62910	1294.65991	770.06470	10.63762	1317.26587	539.89557	-14.34758	1435.84338	543.98535	10.76460	1443.12720	606.87531	160.71973	1472.03699	738.65704	96.78061	1451.70557	769.32843	93.24028	1333.29041	674.51788	211.00288	1425.35120	634.10156	222.28595	1438.38672	554.20526	253.20883	1148.64209	518.31580	167.56468	1132.02063	429.86145	282.64761	896.40485	420.09775	349.85309	932.65253 
7	0.060	706.24921	15.94823	1532.91895	468.62280	-19.65599	1294.67712	770.10382	10.64734	1317.26599	539.92401	-14.36376	1435.85254	544.01154	10.74257	1443.14001	606.90161	160.71184	1472.06787	738.68671	96.77712	1451.71667	769.33899	93.24091	1333.29504	674.54480	210.98824	1425.36182	634.12878	222.26357	1438.40527	554.19751	253.21434	1148.71387	518.18201	167.50269	1132.09363	429.93115	282.62619	896.40936	420.17560	349.83356	932.62762 
8	0.070	706.27301	15.94723	1532.93616	468.64667	-19.68020	1294.68372	770.14404	10.65716	1317.26904	539.95038	-14.37957	1435.86060	544.03937	10.72853	1443.14746	606.92267	160.70886	1472.10266	738.71619	96.77973	1451.73120	769.34802	93.23799	1333.30261	674.57001	210.98486	1425.37683	634.15735	222.24365	1438.42529	554.19177	253.23114	1148.76648	518.05646	167.43944	1132.16943	429.97266	282.59427	896.41528	420.25192	349.81143	932.60724 
9	0.080	706.29517	15.94571	1532.95374	468.67072	-19.70217	1294.68005	770.18561	10.66716	1317.27393	539.97528	-14.39360	1435.86670	544.06757	10.72323	1443.14795	606.93842	160.70923	1472.13025	738.74365	96.78493	1451.74414	769.35706	93.23322	1333.30994	674.58575	210.99153	1425.39368	634.18402	222.23311	1438.44055	554.19397	253.25931	1148.78430	517.97064	167.39513	1132.23242	429.98825	282.54297	896.40399	420.32733	349.78888	932.58569 
10	0.090	706.31635	15.94216	1532.96680	468.69354	-19.72412	1294.67078	770.22876	10.67750	1317.27991	539.99915	-14.40442	1435.87061	544.09027	10.71802	1443.14600	606.94855	160.70871	1472.14587	738.76740	96.78840	1451.75305	769.36682	93.22889	1333.31421	674.59045	211.00145	1425.41162	634.20386	222.23457	1438.45105	554.21185	253.28380	1148.78210	517.94885	167.38036	1132.26843	429.99936	282.48251	896.37482	420.39990	349.77121	932.56268 
11	0.100	706.33734	15.93594	1532.97192	468.71628	-19.74661	1294.66101	770.27344	10.68828	1317.28601	540.02246	-14.41125	1435.87219	544.10791	10.70181	1443.14734	606.95441	160.70386	1472.14929	738.78662	96.78799	1451.75769	769.37701	93.22733	1333.31311	674.58929	211.00731	1425.42993	634.21240	222.24414	1438.46082	554.24860	253.29021	1148.78101	517.99243	167.39474	1132.27026	430.03107	282.43561	896.34369	420.46771	349.76321	932.54120 
12	0.110	706.35730	15.92854	1532.96643	468.74088	-19.76901	1294.65320	770.31970	10.69964	1317.29199	540.04547	-14.41426	1435.87134	544.12622	10.67184	1443.15210	606.95959	160.69319	1472.14270	738.80200	96.78485	1451.75671	769.38666	93.23032	1333.30627	674.58929	211.00491	1425.44580	634.20734	222.24803	1438.46936	554.29932	253.27469	1148.78955	518.08612	167.42918	1132.24060	430.08731	282.41727	896.31958	420.52933	349.76501	932.52277 
13	0.120	706.37347	15.92289	1532.95190	468.76791	-19.79146	1294.64673	770.36682	10.71167	1317.29773	540.06836	-14.41473	1435.86792	544.14874	10.63660	1443.15710	606.96674	160.67628	1472.12976	738.81488	96.78150	1451.75073	769.39520	93.23887	1333.29639	674.59363	210.99734	1425.45789	634.19159	222.23581	1438.47046	554.35455	253.24300	1148.80530	518.20917	167.47197	1132.19202	430.16403	282.43341	896.30292	420.58185	349.77368	932.50726 
14	0.130	706.38367	15.92118	1532.93457	468.79758	-19.81190	1294.63916	770.41351	10.72445	1317.30310	540.09119	-14.41477	1435.86157	544.17224	10.60899	1443.15796	606.97485	160.65619	1472.11584	738.82544	96.78011	1451.74329	769.40393	93.25220	1333.28857	674.59955	210.98978	1425.46704	634.17468	222.21568	1438.46594	554.40759	253.20964	1148.82056	518.33984	167.51146	1132.14038	430.25751	282.47937	896.29309	420.62122	349.78513	932.49585 
15	0.140	706.38770	15.92332	1532.92249	468.83072	-19.82697	1294.62842	770.45758	10.73798	1317.30798	540.11401	-14.41652	1435.85205	544.19299	10.59667	1443.15161	606.98151	160.63893	1472.10510	738.83313	96.78158	1451.74146	769.41595	93.26743	1333.28967	674.60345	210.98221	1425.47278	634.16742	222.20161	1438.46521	554.45557	253.19342	1148.82678	518.46191	167.53955	1132.09827	430.35565	282.53455	896.29004	420.64777	349.79611	932.49078 
16	0.150	706.38702	15.92655	1532.92126	468.86646	-19.83526	1294.61670	770.49554	10.75211	1317.31177	540.13672	-14.42157	1435.83923	544.21008	10.59893	1443.13782	606.98505	160.62801	1472.10315	738.83734	96.78491	1451.75171	769.43433	93.28103	1333.30396	674.60638	210.97542	1425.47839	634.17297	222.19994	1438.47620	554.49615	253.20345	1148.82129	518.56653	167.55247	1132.07324	430.43790	282.57352	896.29413	420.66724	349.80478	932.49469 
17	0.160	706.38440	15.92652	1532.93201	468.90118	-19.83785	1294.60840	770.52289	10.76655	1317.31335	540.15930	-14.43056	1435.82349	544.22540	10.60852	1443.12207	606.98602	160.62325	1472.11475	738.83899	96.78825	1451.77649	769.45984	93.29051	1333.33154	674.60931	210.97662	1425.49329	634.18762	222.20993	1438.50403	554.52832	253.23442	1148.80774	518.65277	167.55031	1132.06738	430.50363	282.59686	896.31116	420.68652	349.81125	932.50873 
18	0.170	706.38306	15.91959	1532.95190	468.93018	-19.83364	1294.60413	770.53381	10.78085	1317.31140	540.18201	-14.44335	1435.80493	544.23779	10.61719	1443.11157	606.98541	160.62166	1472.14038	738.83972	96.78937	1451.81177	769.49048	93.29508	1333.36743	674.61108	210.98810	1425.52283	634.20575	222.22130	1438.54504	554.55493	253.26985	1148.79541	518.72705	167.53618	1132.07629	430.56247	282.61673	896.34216	420.71112	349.81714	932.52985 
